# This file uses centimeters as units for non-parametric coordinates.

g default
v -0.500000 1.030579 0.500000
v -0.500000 0.030579 0.500000
v 0.500000 1.030579 0.500000
v 0.500000 0.030579 0.500000
v 0.500000 1.030579 -0.500000
v 0.500000 0.030579 -0.500000
v -0.500000 1.030579 -0.500000
v -0.500000 0.030579 -0.500000
v -0.176272 1.623669 -0.171906
v -0.176272 1.623669 0.171906
v 0.176272 1.623669 0.171906
v 0.176272 1.623669 -0.171906
v -0.176272 2.905790 -0.171906
v -0.176272 2.905790 0.171906
v 0.176272 2.905790 0.171906
v 0.176272 2.905790 -0.171906
v -0.098769 3.111886 -0.094456
v -0.098769 3.111886 0.094456
v 0.098769 3.111886 0.094456
v 0.098769 3.111886 -0.094456
vt 0.375000 0.000000
vt 0.625000 0.000000
vt 0.625000 0.250000
vt 0.375000 0.250000
vt 0.625000 0.500000
vt 0.375000 0.500000
vt 0.625000 0.750000
vt 0.375000 0.750000
vt 0.625000 1.000000
vt 0.375000 1.000000
vt 0.875000 0.000000
vt 0.875000 0.250000
vt 0.125000 0.000000
vt 0.375000 0.000000
vt 0.375000 0.250000
vt 0.125000 0.250000
vt 0.125000 0.000000
vt 0.375000 0.000000
vt 0.125000 0.000000
vt 0.375000 0.250000
vt 0.125000 0.250000
vt 0.125000 0.250000
vt 0.375000 0.000000
vt 0.125000 0.000000
vt 0.375000 0.250000
vt 0.125000 0.250000
vn 0.000000 0.122536 0.992464
vn 0.000000 -0.000000 1.000000
vn 0.000000 0.122536 0.992464
vn 0.000000 -0.000000 1.000000
vn 0.992798 0.119801 0.000000
vn 1.000000 -0.000000 0.000000
vn 0.992798 0.119801 0.000000
vn 1.000000 -0.000000 0.000000
vn 0.000000 0.122536 -0.992464
vn 0.000000 0.000000 -1.000000
vn 0.000000 0.122536 -0.992464
vn 0.000000 0.000000 -1.000000
vn -0.992798 0.119801 0.000000
vn -1.000000 0.000000 0.000000
vn -0.992798 0.119801 0.000000
vn -1.000000 0.000000 0.000000
vn 0.000000 -1.000000 0.000000
vn 0.000000 -1.000000 0.000000
vn 0.000000 -1.000000 0.000000
vn 0.000000 -1.000000 0.000000
vn 0.000000 1.000000 0.000000
vn 0.000000 1.000000 0.000000
vn 0.000000 1.000000 0.000000
vn 0.000000 1.000000 0.000000
vn -0.992798 0.119801 0.000000
vn -0.992798 0.119801 0.000000
vn -0.959495 0.281727 0.000000
vn -0.959495 0.281727 0.000000
vn 0.000000 0.122536 0.992464
vn 0.000000 0.122536 0.992464
vn 0.000000 0.282575 0.959245
vn 0.000000 0.282575 0.959245
vn 0.992798 0.119801 0.000000
vn 0.992798 0.119801 0.000000
vn 0.959495 0.281727 0.000000
vn 0.959495 0.281727 0.000000
vn 0.000000 0.122536 -0.992464
vn 0.000000 0.122536 -0.992464
vn 0.000000 0.282575 -0.959245
vn 0.000000 0.282575 -0.959245
vn -0.959495 0.281727 0.000000
vn -0.959495 0.281727 0.000000
vn -0.999440 0.033458 0.000000
vn -0.999440 0.033458 0.000000
vn 0.000000 0.282575 0.959245
vn 0.000000 0.282575 0.959245
vn 0.000000 0.033642 0.999434
vn 0.000000 0.033642 0.999434
vn 0.959495 0.281727 0.000000
vn 0.959495 0.281727 0.000000
vn 0.999440 0.033458 0.000000
vn 0.999440 0.033458 0.000000
vn 0.000000 0.282575 -0.959245
vn 0.000000 0.282575 -0.959245
vn 0.000000 0.033642 -0.999434
vn 0.000000 0.033642 -0.999434
vn -0.999440 0.033458 0.000000
vn -0.999440 0.033458 0.000000
vn -0.936005 0.351987 0.000000
vn -0.936005 0.351987 0.000000
vn 0.000000 0.033642 0.999434
vn 0.000000 0.033642 0.999434
vn 0.000000 0.351774 0.936085
vn 0.000000 0.351774 0.936085
vn 0.999440 0.033458 0.000000
vn 0.999440 0.033458 0.000000
vn 0.936005 0.351987 0.000000
vn 0.936005 0.351987 0.000000
vn 0.000000 0.033642 -0.999434
vn 0.000000 0.033642 -0.999434
vn 0.000000 0.351774 -0.936085
vn 0.000000 0.351774 -0.936085
g test:pCube1
f 1/1/1 2/2/2 3/4/3
f 3/4/3 2/2/2 4/3/4
f 3/4/5 4/3/6 5/6/7
f 5/6/7 4/3/6 6/5/8
f 5/6/9 6/5/10 7/8/11
f 7/8/11 6/5/10 8/7/12
f 7/8/13 8/7/14 1/10/15
f 1/10/15 8/7/14 2/9/16
f 2/2/17 8/11/18 4/3/19
f 4/3/19 8/11/18 6/12/20
f 17/13/21 18/14/22 20/16/23
f 20/16/23 18/14/22 19/15/24
f 7/17/25 1/1/26 9/19/27
f 9/19/27 1/1/26 10/18/28
f 1/1/29 3/4/30 10/18/31
f 10/18/31 3/4/30 11/20/32
f 3/4/33 5/21/34 11/20/35
f 11/20/35 5/21/34 12/22/36
f 5/21/37 7/17/38 12/22/39
f 12/22/39 7/17/38 9/19/40
f 9/19/41 10/18/42 13/24/43
f 13/24/43 10/18/42 14/23/44
f 10/18/45 11/20/46 14/23/47
f 14/23/47 11/20/46 15/25/48
f 11/20/49 12/22/50 15/25/51
f 15/25/51 12/22/50 16/26/52
f 12/22/53 9/19/54 16/26/55
f 16/26/55 9/19/54 13/24/56
f 13/24/57 14/23/58 17/13/59
f 17/13/59 14/23/58 18/14/60
f 14/23/61 15/25/62 18/14/63
f 18/14/63 15/25/62 19/15/64
f 15/25/65 16/26/66 19/15/67
f 19/15/67 16/26/66 20/16/68
f 16/26/69 13/24/70 20/16/71
f 20/16/71 13/24/70 17/13/72
g default
v -0.500000 1.030579 0.500000
v -0.500000 0.030579 0.500000
v 0.500000 1.030579 0.500000
v 0.500000 0.030579 0.500000
v 0.500000 1.030579 -0.500000
v 0.500000 0.030579 -0.500000
v -0.500000 1.030579 -0.500000
v -0.500000 0.030579 -0.500000
v -0.176272 1.623669 -0.171906
v -0.176272 1.623669 0.171906
v 0.176272 1.623669 0.171906
v 0.176272 1.623669 -0.171906
v -0.176272 2.905790 -0.171906
v -0.176272 2.905790 0.171906
v 0.176272 2.905790 0.171906
v 0.176272 2.905790 -0.171906
v -0.098769 3.111886 -0.094456
v -0.098769 3.111886 0.094456
v 0.098769 3.111886 0.094456
v 0.098769 3.111886 -0.094456
vt 0.375000 0.000000
vt 0.625000 0.000000
vt 0.625000 0.250000
vt 0.375000 0.250000
vt 0.625000 0.500000
vt 0.375000 0.500000
vt 0.625000 0.750000
vt 0.375000 0.750000
vt 0.625000 1.000000
vt 0.375000 1.000000
vt 0.875000 0.000000
vt 0.875000 0.250000
vt 0.125000 0.000000
vt 0.375000 0.000000
vt 0.375000 0.250000
vt 0.125000 0.250000
vt 0.125000 0.000000
vt 0.375000 0.000000
vt 0.125000 0.000000
vt 0.375000 0.250000
vt 0.125000 0.250000
vt 0.125000 0.250000
vt 0.375000 0.000000
vt 0.125000 0.000000
vt 0.375000 0.250000
vt 0.125000 0.250000
vn 0.000000 0.122536 0.992464
vn 0.000000 -0.000000 1.000000
vn 0.000000 0.122536 0.992464
vn 0.000000 -0.000000 1.000000
vn 0.992798 0.119801 0.000000
vn 1.000000 -0.000000 0.000000
vn 0.992798 0.119801 0.000000
vn 1.000000 -0.000000 0.000000
vn 0.000000 0.122536 -0.992464
vn 0.000000 0.000000 -1.000000
vn 0.000000 0.122536 -0.992464
vn 0.000000 0.000000 -1.000000
vn -0.992798 0.119801 0.000000
vn -1.000000 0.000000 0.000000
vn -0.992798 0.119801 0.000000
vn -1.000000 0.000000 0.000000
vn 0.000000 -1.000000 0.000000
vn 0.000000 -1.000000 0.000000
vn 0.000000 -1.000000 0.000000
vn 0.000000 -1.000000 0.000000
vn 0.000000 1.000000 0.000000
vn 0.000000 1.000000 0.000000
vn 0.000000 1.000000 0.000000
vn 0.000000 1.000000 0.000000
vn -0.992798 0.119801 0.000000
vn -0.992798 0.119801 0.000000
vn -0.959495 0.281727 0.000000
vn -0.959495 0.281727 0.000000
vn 0.000000 0.122536 0.992464
vn 0.000000 0.122536 0.992464
vn 0.000000 0.282575 0.959245
vn 0.000000 0.282575 0.959245
vn 0.992798 0.119801 0.000000
vn 0.992798 0.119801 0.000000
vn 0.959495 0.281727 0.000000
vn 0.959495 0.281727 0.000000
vn 0.000000 0.122536 -0.992464
vn 0.000000 0.122536 -0.992464
vn 0.000000 0.282575 -0.959245
vn 0.000000 0.282575 -0.959245
vn -0.959495 0.281727 0.000000
vn -0.959495 0.281727 0.000000
vn -0.999440 0.033458 0.000000
vn -0.999440 0.033458 0.000000
vn 0.000000 0.282575 0.959245
vn 0.000000 0.282575 0.959245
vn 0.000000 0.033642 0.999434
vn 0.000000 0.033642 0.999434
vn 0.959495 0.281727 0.000000
vn 0.959495 0.281727 0.000000
vn 0.999440 0.033458 0.000000
vn 0.999440 0.033458 0.000000
vn 0.000000 0.282575 -0.959245
vn 0.000000 0.282575 -0.959245
vn 0.000000 0.033642 -0.999434
vn 0.000000 0.033642 -0.999434
vn -0.999440 0.033458 0.000000
vn -0.999440 0.033458 0.000000
vn -0.936005 0.351987 0.000000
vn -0.936005 0.351987 0.000000
vn 0.000000 0.033642 0.999434
vn 0.000000 0.033642 0.999434
vn 0.000000 0.351774 0.936085
vn 0.000000 0.351774 0.936085
vn 0.999440 0.033458 0.000000
vn 0.999440 0.033458 0.000000
vn 0.936005 0.351987 0.000000
vn 0.936005 0.351987 0.000000
vn 0.000000 0.033642 -0.999434
vn 0.000000 0.033642 -0.999434
vn 0.000000 0.351774 -0.936085
vn 0.000000 0.351774 -0.936085
g test:pCube1
f 21/27/73 22/28/74 23/30/75
f 23/30/75 22/28/74 24/29/76
f 23/30/77 24/29/78 25/32/79
f 25/32/79 24/29/78 26/31/80
f 25/32/81 26/31/82 27/34/83
f 27/34/83 26/31/82 28/33/84
f 27/34/85 28/33/86 21/36/87
f 21/36/87 28/33/86 22/35/88
f 22/28/89 28/37/90 24/29/91
f 24/29/91 28/37/90 26/38/92
f 37/39/93 38/40/94 40/42/95
f 40/42/95 38/40/94 39/41/96
f 27/43/97 21/27/98 29/45/99
f 29/45/99 21/27/98 30/44/100
f 21/27/101 23/30/102 30/44/103
f 30/44/103 23/30/102 31/46/104
f 23/30/105 25/47/106 31/46/107
f 31/46/107 25/47/106 32/48/108
f 25/47/109 27/43/110 32/48/111
f 32/48/111 27/43/110 29/45/112
f 29/45/113 30/44/114 33/50/115
f 33/50/115 30/44/114 34/49/116
f 30/44/117 31/46/118 34/49/119
f 34/49/119 31/46/118 35/51/120
f 31/46/121 32/48/122 35/51/123
f 35/51/123 32/48/122 36/52/124
f 32/48/125 29/45/126 36/52/127
f 36/52/127 29/45/126 33/50/128
f 33/50/129 34/49/130 37/39/131
f 37/39/131 34/49/130 38/40/132
f 34/49/133 35/51/134 38/40/135
f 38/40/135 35/51/134 39/41/136
f 35/51/137 36/52/138 39/41/139
f 39/41/139 36/52/138 40/42/140
f 36/52/141 33/50/142 40/42/143
f 40/42/143 33/50/142 37/39/144
