# This file uses centimeters as units for non-parametric coordinates.

mtllib tex_b_cube.mtl
g default
v -0.985234 -1.951751 0.052237
v 1.121197 1.405479 1.245107
v -1.658091 -1.368080 -0.402287
v 0.448340 1.989150 0.790583
v -1.121197 -1.405479 -1.245107
v 0.985234 1.951751 -0.052237
v -0.448340 -1.989150 -0.790583
v 1.658091 1.368080 0.402287
vt 0.375000 0.000000
vt 0.625000 0.000000
vt 0.375000 0.250000
vt 0.625000 0.250000
vt 0.375000 0.500000
vt 0.625000 0.500000
vt 0.375000 0.750000
vt 0.625000 0.750000
vt 0.375000 1.000000
vt 0.625000 1.000000
vt 0.875000 0.000000
vt 0.875000 0.250000
vt 0.125000 0.000000
vt 0.125000 0.250000
vn -0.536895 0.037399 0.842820
vn -0.536895 0.037399 0.842820
vn -0.536895 0.037399 0.842820
vn -0.536895 0.037399 0.842820
vn -0.672857 0.583670 -0.454524
vn -0.672857 0.583670 -0.454524
vn -0.672857 0.583670 -0.454524
vn -0.672857 0.583670 -0.454524
vn 0.536895 -0.037399 -0.842820
vn 0.536895 -0.037399 -0.842820
vn 0.536895 -0.037399 -0.842820
vn 0.536895 -0.037399 -0.842820
vn 0.672857 -0.583670 0.454524
vn 0.672857 -0.583670 0.454524
vn 0.672857 -0.583670 0.454524
vn 0.672857 -0.583670 0.454524
vn 0.508928 0.811129 0.288205
vn 0.508928 0.811129 0.288205
vn 0.508928 0.811129 0.288205
vn 0.508928 0.811129 0.288205
vn -0.508928 -0.811129 -0.288205
vn -0.508928 -0.811129 -0.288205
vn -0.508928 -0.811129 -0.288205
vn -0.508928 -0.811129 -0.288205
g pCube1
usemtl lambert3SG
f 1/1/1 2/2/2 4/4/3 3/3/4
f 3/3/5 4/4/6 6/6/7 5/5/8
f 5/5/9 6/6/10 8/8/11 7/7/12
f 7/7/13 8/8/14 2/10/15 1/9/16
f 2/2/17 8/11/18 6/12/19 4/4/20
f 7/13/21 1/1/22 3/3/23 5/14/24
